<svg xmlns="http://www.w3.org/2000/svg" viewBox="0 0 113.39 113.39"><defs><style>.a{fill:#ed8317;}.b{fill:#f5a819;}.c{fill:#f2f5c8;}.d{fill:#f5ab18;}</style></defs><path class="a" d="M0,56.69A56.7,56.7,0,1,0,56.69,0,56.7,56.7,0,0,0,0,56.69Zm0,0"/><path class="b" d="M1.43,56.69A55.26,55.26,0,1,0,56.69,1.43,55.26,55.26,0,0,0,1.43,56.69Zm0,0"/><path class="c" d="M5.94,56.69A50.75,50.75,0,1,0,56.69,5.94,50.75,50.75,0,0,0,5.94,56.69Zm0,0"/><path class="d" d="M67,16.69,58.7,48a1.78,1.78,0,0,1-.29,1.18v.83a1.47,1.47,0,0,1-1.19.65A1.56,1.56,0,0,1,56,50.11v-.83l-.35-1.18-9-31.41a4.67,4.67,0,0,1,4.13-5.9h12.1A4.67,4.67,0,0,1,67,16.69Zm0,80.12L58.7,65.46a1.8,1.8,0,0,0-.29-1.18v-.83a1.52,1.52,0,0,0-1.19-.65,1.63,1.63,0,0,0-1.18.59v.83l-.35,1.18L47.25,96.69a4.67,4.67,0,0,0,4.13,5.91h12.1A4.66,4.66,0,0,0,67,96.81ZM45.59,17,54,48.28a1.8,1.8,0,0,0,.29,1.18v.83a1.52,1.52,0,0,1-.71,1.18,1.59,1.59,0,0,1-1.35,0l-.65-.59-.89-.83-23-22.91a4.67,4.67,0,0,1,.59-7.2L38.86,14A4.65,4.65,0,0,1,45.59,17ZM85.68,86.36l-22.85-23L62,62.51l-.65-.59a1.48,1.48,0,0,0-1.36,0A1.53,1.53,0,0,0,59.23,63v2L67.56,96.4a4.67,4.67,0,0,0,6.55,3.13l10.51-5.91a4.66,4.66,0,0,0,1.06-7.26ZM27.23,27.91l23,22.91.88.83.59.64a1.48,1.48,0,0,1,0,1.36,1.51,1.51,0,0,1-1.12.77h-2L17.2,46.09a4.65,4.65,0,0,1-3.14-2.52,4.7,4.7,0,0,1,0-4L20,29a4.66,4.66,0,0,1,7.26-1.12ZM96.66,68,65.55,59.56l-1.18-.3h-.83a1.55,1.55,0,0,0-1.18.71,1.63,1.63,0,0,0,0,1.3l.59.65.83.88,22.9,23A4.67,4.67,0,0,0,94,85.18l5.9-10.51A4.66,4.66,0,0,0,96.66,68ZM16.78,46.57l31.06,8.32,1.18.3h.82a1.49,1.49,0,0,1,.65,1.24,1.56,1.56,0,0,1-.59,1.18h-.82L47.9,58,16.61,66.4a4.67,4.67,0,0,1-5.91-4.13V50.7a4.71,4.71,0,0,1,2-3.55,4.66,4.66,0,0,1,4.05-.58Zm80.12,0L65.55,54.89l-1.18.3h-.83a1.54,1.54,0,0,0-.65,1.24,1.6,1.6,0,0,0,.59,1.18h.83l1.18.35L96.78,66.4a4.66,4.66,0,0,0,5.9-4.13V50.7a4.66,4.66,0,0,0-5.78-4.13ZM17.08,68l31.29-8.44,1.18-.3h.83a1.5,1.5,0,0,1,1.18.71,1.55,1.55,0,0,1,0,1.3l-.59.65-.83.88-22.91,23a4.67,4.67,0,0,1-7.2-.59l-5.9-10.51A4.65,4.65,0,0,1,17.08,68ZM86.45,27.91l-23,22.91-.88.83-.59.64a1.48,1.48,0,0,0,0,1.36,1.61,1.61,0,0,0,1.12.77H64l1.19-.3L96.49,45.8a4.66,4.66,0,0,0,3.12-6.55l-5.9-10.51a4.66,4.66,0,0,0-7.26-.83ZM28,86.36l22.85-23,.82-.88.65-.59a1.48,1.48,0,0,1,1.36,0A1.53,1.53,0,0,1,54.45,63v2L46.13,96.34a4.67,4.67,0,0,1-6.56,3.13L29.06,93.56a4.66,4.66,0,0,1-2.26-3.34A4.71,4.71,0,0,1,28,86.36ZM68.09,17,59.65,48.28a1.75,1.75,0,0,1-.3,1.18v.83a1.48,1.48,0,0,0,.71,1.18,1.62,1.62,0,0,0,1.36,0l.65-.59.88-.83,23-22.91a4.67,4.67,0,0,0-.59-7.2L74.82,14A4.65,4.65,0,0,0,68.09,17Zm0,0"/></svg>